<?xml version="1.0" standalone="no"?>
<svg xmlns:xlink="http://www.w3.org/1999/xlink" id="wave" style="transform:rotate(0deg); transition: 0.3s" viewBox="0 0 1440 440" version="1.1" xmlns="http://www.w3.org/2000/svg"><defs><linearGradient id="sw-gradient-0" x1="0" x2="0" y1="1" y2="0"><stop stop-color="#14153a" offset="0%"/><stop stop-color="#fa855a" offset="100%"/></linearGradient></defs><path style="transform:translate(0, 0px); opacity:1" fill="url(#sw-gradient-0)" d="M0,264L80,271.3C160,279,320,293,480,264C640,235,800,161,960,132C1120,103,1280,117,1440,161.3C1600,205,1760,279,1920,256.7C2080,235,2240,117,2400,124.7C2560,132,2720,264,2880,300.7C3040,337,3200,279,3360,220C3520,161,3680,103,3840,117.3C4000,132,4160,220,4320,242C4480,264,4640,220,4800,220C4960,220,5120,264,5280,249.3C5440,235,5600,161,5760,124.7C5920,88,6080,88,6240,117.3C6400,147,6560,205,6720,227.3C6880,249,7040,235,7200,234.7C7360,235,7520,249,7680,264C7840,279,8000,293,8160,249.3C8320,205,8480,103,8640,88C8800,73,8960,147,9120,168.7C9280,191,9440,161,9600,176C9760,191,9920,249,10080,293.3C10240,337,10400,367,10560,322.7C10720,279,10880,161,11040,95.3C11200,29,11360,15,11440,7.3L11520,0L11520,440L11440,440C11360,440,11200,440,11040,440C10880,440,10720,440,10560,440C10400,440,10240,440,10080,440C9920,440,9760,440,9600,440C9440,440,9280,440,9120,440C8960,440,8800,440,8640,440C8480,440,8320,440,8160,440C8000,440,7840,440,7680,440C7520,440,7360,440,7200,440C7040,440,6880,440,6720,440C6560,440,6400,440,6240,440C6080,440,5920,440,5760,440C5600,440,5440,440,5280,440C5120,440,4960,440,4800,440C4640,440,4480,440,4320,440C4160,440,4000,440,3840,440C3680,440,3520,440,3360,440C3200,440,3040,440,2880,440C2720,440,2560,440,2400,440C2240,440,2080,440,1920,440C1760,440,1600,440,1440,440C1280,440,1120,440,960,440C800,440,640,440,480,440C320,440,160,440,80,440L0,440Z"/><defs><linearGradient id="sw-gradient-1" x1="0" x2="0" y1="1" y2="0"><stop stop-color="#14153a" offset="0%"/><stop stop-color="#fa855a" offset="100%"/></linearGradient></defs><path style="transform:translate(0, 50px); opacity:0.9" fill="url(#sw-gradient-1)" d="M0,44L80,58.7C160,73,320,103,480,146.7C640,191,800,249,960,293.3C1120,337,1280,367,1440,330C1600,293,1760,191,1920,154C2080,117,2240,147,2400,132C2560,117,2720,59,2880,51.3C3040,44,3200,88,3360,146.7C3520,205,3680,279,3840,278.7C4000,279,4160,205,4320,183.3C4480,161,4640,191,4800,227.3C4960,264,5120,308,5280,300.7C5440,293,5600,235,5760,183.3C5920,132,6080,88,6240,66C6400,44,6560,44,6720,66C6880,88,7040,132,7200,154C7360,176,7520,176,7680,146.7C7840,117,8000,59,8160,29.3C8320,0,8480,0,8640,14.7C8800,29,8960,59,9120,95.3C9280,132,9440,176,9600,212.7C9760,249,9920,279,10080,242C10240,205,10400,103,10560,117.3C10720,132,10880,264,11040,300.7C11200,337,11360,279,11440,249.3L11520,220L11520,440L11440,440C11360,440,11200,440,11040,440C10880,440,10720,440,10560,440C10400,440,10240,440,10080,440C9920,440,9760,440,9600,440C9440,440,9280,440,9120,440C8960,440,8800,440,8640,440C8480,440,8320,440,8160,440C8000,440,7840,440,7680,440C7520,440,7360,440,7200,440C7040,440,6880,440,6720,440C6560,440,6400,440,6240,440C6080,440,5920,440,5760,440C5600,440,5440,440,5280,440C5120,440,4960,440,4800,440C4640,440,4480,440,4320,440C4160,440,4000,440,3840,440C3680,440,3520,440,3360,440C3200,440,3040,440,2880,440C2720,440,2560,440,2400,440C2240,440,2080,440,1920,440C1760,440,1600,440,1440,440C1280,440,1120,440,960,440C800,440,640,440,480,440C320,440,160,440,80,440L0,440Z"/><defs><linearGradient id="sw-gradient-2" x1="0" x2="0" y1="1" y2="0"><stop stop-color="#14153a" offset="0%"/><stop stop-color="#fa855a" offset="100%"/></linearGradient></defs><path style="transform:translate(0, 100px); opacity:0.8" fill="url(#sw-gradient-2)" d="M0,88L80,124.7C160,161,320,235,480,256.7C640,279,800,249,960,198C1120,147,1280,73,1440,95.3C1600,117,1760,235,1920,293.3C2080,352,2240,352,2400,308C2560,264,2720,176,2880,132C3040,88,3200,88,3360,80.7C3520,73,3680,59,3840,88C4000,117,4160,191,4320,190.7C4480,191,4640,117,4800,117.3C4960,117,5120,191,5280,220C5440,249,5600,235,5760,256.7C5920,279,6080,337,6240,330C6400,323,6560,249,6720,242C6880,235,7040,293,7200,308C7360,323,7520,293,7680,278.7C7840,264,8000,264,8160,220C8320,176,8480,88,8640,110C8800,132,8960,264,9120,315.3C9280,367,9440,337,9600,315.3C9760,293,9920,279,10080,249.3C10240,220,10400,176,10560,168.7C10720,161,10880,191,11040,220C11200,249,11360,279,11440,293.3L11520,308L11520,440L11440,440C11360,440,11200,440,11040,440C10880,440,10720,440,10560,440C10400,440,10240,440,10080,440C9920,440,9760,440,9600,440C9440,440,9280,440,9120,440C8960,440,8800,440,8640,440C8480,440,8320,440,8160,440C8000,440,7840,440,7680,440C7520,440,7360,440,7200,440C7040,440,6880,440,6720,440C6560,440,6400,440,6240,440C6080,440,5920,440,5760,440C5600,440,5440,440,5280,440C5120,440,4960,440,4800,440C4640,440,4480,440,4320,440C4160,440,4000,440,3840,440C3680,440,3520,440,3360,440C3200,440,3040,440,2880,440C2720,440,2560,440,2400,440C2240,440,2080,440,1920,440C1760,440,1600,440,1440,440C1280,440,1120,440,960,440C800,440,640,440,480,440C320,440,160,440,80,440L0,440Z"/></svg>